<svg xmlns="http://www.w3.org/2000/svg" width="109.558" height="108" viewBox="0 0 109.558 108"><g id="Group_1778" data-name="Group 1778" transform="translate(-1000.373 -2643.307)"><g id="Group_1765" data-name="Group 1765"><path id="Path_307" data-name="Path 307" d="M1052.624,2721.363l-9.191-10.6,2.846-2.469,6.307,7.273,14.627-17.312,2.878,2.431Z" fill="#fff"></path></g><g id="Group_1768" data-name="Group 1768"><g id="Group_1766" data-name="Group 1766"><path id="Path_308" data-name="Path 308" d="M1093.949,2725.491a9.582,9.582,0,1,1,9.581-9.582A9.592,9.592,0,0,1,1093.949,2725.491Zm0-15.7a6.114,6.114,0,1,0,6.113,6.113A6.121,6.121,0,0,0,1093.949,2709.8Z" fill="#fff"></path></g><g id="Group_1767" data-name="Group 1767"><path id="Path_309" data-name="Path 309" d="M1093.949,2746.4c-9.112,0-15.983-3.609-15.983-8.4a15.983,15.983,0,1,1,31.965,0C1109.931,2742.793,1103.06,2746.4,1093.949,2746.4Zm0-20.911a12.529,12.529,0,0,0-12.515,12.515c0,2.057,4.761,4.928,12.515,4.928s12.514-2.871,12.514-4.928A12.529,12.529,0,0,0,1093.949,2725.491Z" fill="#fff"></path></g></g><g id="Group_1771" data-name="Group 1771"><g id="Group_1769" data-name="Group 1769"><path id="Path_310" data-name="Path 310" d="M1055.287,2662.471a9.582,9.582,0,1,1,9.582-9.582A9.593,9.593,0,0,1,1055.287,2662.471Zm0-15.7a6.114,6.114,0,1,0,6.114,6.114A6.121,6.121,0,0,0,1055.287,2646.775Z" fill="#fff"></path></g><g id="Group_1770" data-name="Group 1770"><path id="Path_311" data-name="Path 311" d="M1055.287,2683.382c-9.112,0-15.983-3.61-15.983-8.4a15.983,15.983,0,1,1,31.966,0C1071.27,2679.772,1064.4,2683.382,1055.287,2683.382Zm0-20.911a12.528,12.528,0,0,0-12.514,12.514c0,2.058,4.761,4.928,12.514,4.928s12.514-2.87,12.514-4.928A12.527,12.527,0,0,0,1055.287,2662.471Z" fill="#fff"></path></g></g><g id="Group_1774" data-name="Group 1774"><g id="Group_1772" data-name="Group 1772"><path id="Path_312" data-name="Path 312" d="M1016.356,2725.491a9.582,9.582,0,1,1,9.582-9.582A9.593,9.593,0,0,1,1016.356,2725.491Zm0-15.7a6.114,6.114,0,1,0,6.114,6.113A6.12,6.12,0,0,0,1016.356,2709.8Z" fill="#fff"></path></g><g id="Group_1773" data-name="Group 1773"><path id="Path_313" data-name="Path 313" d="M1016.356,2746.4c-9.112,0-15.983-3.609-15.983-8.4a15.983,15.983,0,1,1,31.966,0C1032.339,2742.793,1025.468,2746.4,1016.356,2746.4Zm0-20.911a12.529,12.529,0,0,0-12.514,12.515c0,2.057,4.761,4.928,12.514,4.928s12.514-2.871,12.514-4.928A12.529,12.529,0,0,0,1016.356,2725.491Z" fill="#fff"></path></g></g><g id="Group_1775" data-name="Group 1775"><path id="Path_314" data-name="Path 314" d="M1018.507,2699.7l-3.344-.922a41.477,41.477,0,0,1,17.3-23.681l1.9,2.9A38.01,38.01,0,0,0,1018.507,2699.7Z" fill="#ffc214"></path></g><g id="Group_1776" data-name="Group 1776"><path id="Path_315" data-name="Path 315" d="M1055.152,2751.307a41.124,41.124,0,0,1-17.543-3.882l1.469-3.142a38.107,38.107,0,0,0,33.27-.547l1.572,3.091A41.027,41.027,0,0,1,1055.152,2751.307Z" fill="#ffc214"></path></g><g id="Group_1777" data-name="Group 1777"><path id="Path_316" data-name="Path 316" d="M1091.453,2698.525a38.206,38.206,0,0,0-14.887-20.1l1.956-2.865a41.684,41.684,0,0,1,16.243,21.939Z" fill="#ffc214"></path></g></g></svg>