<svg xmlns="http://www.w3.org/2000/svg" width="266.602" height="377.744" viewBox="0 0 266.602 377.744"><g id="Group_1826" data-name="Group 1826" transform="translate(-303.551 -976.112)"><path id="Path_323" data-name="Path 323" d="M539.391,1166.418c-12.63-149.423-51.349-164.834-109.2-164.834s-96.571,15.411-109.2,164.834,109.2,158.455,109.2,158.455S552.021,1315.839,539.391,1166.418Z" transform="translate(6.661 10.27)" fill="#f9cea0"></path><g id="Group_1812" data-name="Group 1812" transform="translate(303.551 1166.771)"><g id="Group_1809" data-name="Group 1809"><g id="Group_1808" data-name="Group 1808"><path id="Path_324" data-name="Path 324" d="M326.792,1120.7s-17.481-19.591-21.852,0,1.205,55.456,21.852,69.471C326.792,1190.167,331.313,1145.411,326.792,1120.7Z" transform="translate(-303.551 -1111.99)" fill="#f9be85"></path></g></g><g id="Group_1811" data-name="Group 1811" transform="translate(241.35)"><g id="Group_1810" data-name="Group 1810"><path id="Path_325" data-name="Path 325" d="M477.564,1120.7s17.482-19.591,21.851,0-1.205,55.456-21.851,69.471C477.564,1190.167,473.043,1145.411,477.564,1120.7Z" transform="translate(-475.555 -1111.99)" fill="#f9be85"></path></g></g></g><g id="Group_1813" data-name="Group 1813" transform="translate(312.705 976.112)"><path id="Path_326" data-name="Path 326" d="M463.881,996.2l.126.074S463.967,996.251,463.881,996.2Z" transform="translate(-248.066 -968.011)" fill="#5eadcc"></path><path id="Path_327" data-name="Path 327" d="M547.534,1050.609c-9.644-19.63-25.445-34.613-41.3-44.546,13.027-4.9,18.762-2.255,19.66-1.76-23.921-14.373-48.308-14.763-60.812-13.7-3.55-.651-6.981-1.177-10.19-1.605l-6.926-11.816c-5.036,5.036-5.54,9.064-5.54,9.064-47.337-31.726-100.716,21.151-100.716,21.151,9.1-6.3,25.466-9.574,40.405-11.272-21.119,7.9-47.435,26.454-61.2,54.481-15.37,31.291-9.881,117.156-9.881,117.156,18.39,7.135,11.8,63.4,11.8,63.4l6.4,5.215.027-41.9c-.873-59.827,27.118-44.932,13.538-86.9-14.109-43.6,91.429-50.739,91.429-50.739s105.536,7.137,91.427,50.739c-13.58,41.97,14.412,27.075,13.538,86.9l.028,41.9,6.4-5.215s-6.586-56.267,11.8-63.4C557.414,1167.765,562.9,1081.9,547.534,1050.609Z" transform="translate(-310.075 -976.112)" fill="#5eadcc"></path></g><path id="Path_328" data-name="Path 328" d="M542.471,1157.883l-6.4,5.215-7.379,19.274c-21.32,50.068-40.7,13.243-56.207-2.262s-41.407-5.815-41.407-5.815-25.9-9.69-41.409,5.815-34.887,52.329-56.207,2.262l-7.378-19.274-6.4-5.215s-3.243,23.46-1.082,30.875c7.056,24.219,44.9,65.326,63.312,78.569s49.161,13.244,49.161,13.244,30.747,0,49.16-13.244,56.256-54.35,63.314-78.569C545.715,1181.343,542.471,1157.883,542.471,1157.883Z" transform="translate(5.771 73.284)" fill="#eb9729"></path><g id="Group_1816" data-name="Group 1816" transform="translate(367.95 1157.623)"><g id="Group_1814" data-name="Group 1814"><ellipse id="Ellipse_21" data-name="Ellipse 21" cx="12.467" cy="11.831" rx="12.467" ry="11.831" fill="#1d1d1b"></ellipse></g><g id="Group_1815" data-name="Group 1815" transform="translate(112.868)"><ellipse id="Ellipse_22" data-name="Ellipse 22" cx="12.467" cy="11.831" rx="12.467" ry="11.831" fill="#1d1d1b"></ellipse></g></g><g id="Group_1817" data-name="Group 1817" transform="translate(417.71 1221.864)"><path id="Path_329" data-name="Path 329" d="M384.909,1151.253a32.721,32.721,0,0,0,9.805,5.586,27.835,27.835,0,0,0,18.668-.01,32.912,32.912,0,0,0,9.81-5.576,19.208,19.208,0,0,1-7.319,10.806,20.07,20.07,0,0,1-23.639-.01A19.252,19.252,0,0,1,384.909,1151.253Z" transform="translate(-384.909 -1151.253)" fill="#432918"></path></g><g id="Group_1818" data-name="Group 1818" transform="translate(363.212 1106.348)"><path id="Path_330" data-name="Path 330" d="M427.233,1081.862l-2.527-9.892a2.591,2.591,0,0,1,3.066-3.014l31.577,4.3a2.45,2.45,0,0,1,.16,4.88l-29.05,5.59A2.744,2.744,0,0,1,427.233,1081.862Z" transform="translate(-314.396 -1068.928)" fill="#1d1d1b"></path><path id="Path_331" data-name="Path 331" d="M380.512,1081.862l2.527-9.892a2.592,2.592,0,0,0-3.066-3.014l-31.577,4.3a2.45,2.45,0,0,0-.161,4.88l29.05,5.59A2.746,2.746,0,0,0,380.512,1081.862Z" transform="translate(-346.07 -1068.928)" fill="#1d1d1b"></path></g><g id="Group_1819" data-name="Group 1819" transform="translate(402.693 1284.487)"><path id="Path_332" data-name="Path 332" d="M380.531,1206.99a198.94,198.94,0,0,0,55.669,0c2.719-4.4,3.984-6.622,6.323-11.107a182.3,182.3,0,0,1-68.316,0C376.546,1200.369,377.81,1202.594,380.531,1206.99Z" transform="translate(-374.207 -1195.883)" fill="#1d1d1b"></path></g><g id="Group_1820" data-name="Group 1820" transform="translate(312.705 976.112)"><path id="Path_333" data-name="Path 333" d="M463.881,996.2l.126.074S463.967,996.251,463.881,996.2Z" transform="translate(-248.066 -968.011)" fill="#e94e1b"></path><path id="Path_334" data-name="Path 334" d="M547.534,1050.609c-9.644-19.63-25.445-34.613-41.3-44.546,13.027-4.9,18.762-2.255,19.66-1.76-23.921-14.373-48.308-14.763-60.812-13.7-3.55-.651-6.981-1.177-10.19-1.605l-6.926-11.816c-5.036,5.036-5.54,9.064-5.54,9.064-47.337-31.726-100.716,21.151-100.716,21.151,9.1-6.3,25.466-9.574,40.405-11.272-21.119,7.9-47.435,26.454-61.2,54.481-15.37,31.291-9.881,117.156-9.881,117.156,18.39,7.135,11.8,63.4,11.8,63.4l6.4,5.215.027-41.9c-.873-59.827,27.118-44.932,13.538-86.9-14.109-43.6,91.429-50.739,91.429-50.739s105.536,7.137,91.427,50.739c-13.58,41.97,14.412,27.075,13.538,86.9l.028,41.9,6.4-5.215s-6.586-56.267,11.8-63.4C557.414,1167.765,562.9,1081.9,547.534,1050.609Z" transform="translate(-310.075 -976.112)" fill="#e94e1b"></path></g><g id="Group_1823" data-name="Group 1823" transform="translate(331.258 1137.456)"><g id="Group_1821" data-name="Group 1821"><path id="Path_335" data-name="Path 335" d="M393.257,1153.209H351.686c-9.6,0-17.917-6.968-20.215-16.946l-7.949-34.514A8.7,8.7,0,0,1,332,1091.1h80.947a8.7,8.7,0,0,1,8.477,10.653l-7.949,34.512C411.176,1146.241,402.862,1153.209,393.257,1153.209ZM333.41,1100.92l7.632,33.14c1.266,5.492,5.642,9.327,10.644,9.327h41.572c5,0,9.379-3.835,10.644-9.327l7.632-33.14Z" transform="translate(-323.297 -1091.098)" fill="#1d1d1b"></path></g><g id="Group_1822" data-name="Group 1822" transform="translate(112.837)"><path id="Path_336" data-name="Path 336" d="M473.675,1153.209H432.1c-9.6,0-17.917-6.968-20.215-16.945l-7.948-34.515a8.7,8.7,0,0,1,8.475-10.651h80.947a8.7,8.7,0,0,1,8.478,10.651l-7.95,34.514C491.592,1146.241,483.278,1153.209,473.675,1153.209Zm-59.848-52.289,7.632,33.14c1.264,5.492,5.642,9.327,10.643,9.327h41.573c5,0,9.377-3.835,10.643-9.327l7.632-33.14Z" transform="translate(-403.713 -1091.098)" fill="#1d1d1b"></path></g></g><g id="Group_1824" data-name="Group 1824" transform="translate(423.259 1151.354)"><rect id="Rectangle_18" data-name="Rectangle 18" width="27.185" height="8.419" fill="#1d1d1b"></rect></g><g id="Group_1825" data-name="Group 1825" transform="translate(313.048 1148.338)"><path id="Path_337" data-name="Path 337" d="M493.767,1104.612l-22.247-5.759-2.063,7.973q.636,1.61,1.231,3.407l22.6,5.848C493.4,1113.787,493.6,1109.795,493.767,1104.612Z" transform="translate(-246.16 -1098.853)" fill="#1d1d1b"></path><path id="Path_338" data-name="Path 338" d="M332.566,1098.853l-22.247,5.759c.168,5.183.362,9.175.484,11.469l22.6-5.848q.594-1.8,1.232-3.407Z" transform="translate(-310.319 -1098.853)" fill="#1d1d1b"></path></g></g></svg>