<svg xmlns="http://www.w3.org/2000/svg" width="85.943" height="108" viewBox="0 0 85.943 108"><g id="Group_1725" data-name="Group 1725" transform="translate(-1731.575 -2942.939)"><g id="Group_1719" data-name="Group 1719"><g id="Group_1716" data-name="Group 1716"><path id="Path_272" data-name="Path 272" d="M1777.919,2984.254a1.716,1.716,0,0,1-1.213-2.929l33.116-33.116a1.716,1.716,0,0,1,2.427,2.426l-33.116,33.116A1.707,1.707,0,0,1,1777.919,2984.254Z" fill="#fff"></path></g><g id="Group_1717" data-name="Group 1717"><path id="Path_273" data-name="Path 273" d="M1781.663,2962.139a9.6,9.6,0,1,1,9.6-9.6A9.61,9.61,0,0,1,1781.663,2962.139Zm0-15.768a6.168,6.168,0,1,0,6.169,6.168A6.175,6.175,0,0,0,1781.663,2946.371Z" fill="#ffc214"></path></g><g id="Group_1718" data-name="Group 1718"><path id="Path_274" data-name="Path 274" d="M1807.918,2988.394a9.6,9.6,0,1,1,9.6-9.6A9.611,9.611,0,0,1,1807.918,2988.394Zm0-15.768a6.168,6.168,0,1,0,6.168,6.168A6.175,6.175,0,0,0,1807.918,2972.626Z" fill="#ffc214"></path></g></g><g id="Group_1724" data-name="Group 1724"><g id="Group_1721" data-name="Group 1721"><g id="Group_1720" data-name="Group 1720"><rect id="Rectangle_15" data-name="Rectangle 15" width="3.432" height="12.529" transform="translate(1740.384 3034.1) rotate(-11.826)" fill="#fff"></rect></g></g><g id="Group_1722" data-name="Group 1722"><path id="Path_275" data-name="Path 275" d="M1803.328,3014.72" fill="none" stroke="#fff" stroke-miterlimit="10" stroke-width="10"></path></g><g id="Group_1723" data-name="Group 1723"><path id="Path_276" data-name="Path 276" d="M1739.364,3050.939a7.885,7.885,0,0,1-2.749-.468,4.524,4.524,0,0,1-3.033-3.208l-1.926-9.2c-.537-2.568,1.64-5.159,5.031-6.122l-.005-.024h.005l.669-.14.012,0,.005.021a8.526,8.526,0,0,1,3.748.222,1.984,1.984,0,0,0,1.732-.544l.191-.293c.531-.815,1.033-1.652,1.519-2.461,1.991-3.316,4.049-6.745,8.516-9.458,4.153-2.522,7.222-4.261,13.742-7.915.733-.411,1.494-.916,2.3-1.451,3.08-2.044,6.912-4.588,11.45-2.838,2.7,1.04,3.549,2.729,3.789,3.962.491,2.527-1.06,5.494-4.612,8.818-1.529,1.431-2.63,2.392-3.519,3.163l4.331-.907a49.126,49.126,0,0,0,10.992-3.7l11.034-5.24a7.878,7.878,0,0,1,6.254-.233,6.937,6.937,0,0,1,3.908,3.99c.949,2.481-.434,4.907-1.557,6.515l-.176.252-19.917,13.808a35.645,35.645,0,0,1-13.537,5.732c-8.666,1.7-20.4,3.783-27.26,4.13a21.242,21.242,0,0,1-4.626.432,7.682,7.682,0,0,1-4.341,2.93l.005.024-.01,0-.668.14-.009,0-.005-.024A9.645,9.645,0,0,1,1739.364,3050.939Zm-1.618-15.728c-1.879.493-2.837,1.643-2.731,2.151l1.926,9.2c.052.247.388.514.876.7a5.069,5.069,0,0,0,2.475.178,3.779,3.779,0,0,0,2.69-1.9l.388-1.343,1.393.108a17.61,17.61,0,0,0,4.969-.341l.133-.028.137-.007c6.63-.317,18.288-2.392,26.9-4.077a32.215,32.215,0,0,0,12.241-5.185l19.4-13.452c1.236-1.843,1.164-2.636,1-3.076a3.547,3.547,0,0,0-1.995-2.037,4.427,4.427,0,0,0-3.505.162l-11.018,5.232a52.566,52.566,0,0,1-11.762,3.962l-6.291,1.317c-.985.207-3.292.69-4.141-1.042-.741-1.51.557-3.073,1.785-4.124.381-.342.779-.688,1.224-1.074.891-.773,2-1.734,3.563-3.2,3.681-3.445,3.677-5.2,3.588-5.658-.108-.557-.665-1.033-1.655-1.415-2.882-1.113-5.522.64-8.316,2.5-.823.547-1.674,1.112-2.52,1.586-6.483,3.633-9.532,5.361-13.638,7.855-3.743,2.272-5.417,5.061-7.356,8.291-.5.836-1.021,1.7-1.587,2.568l-.19.293a5.3,5.3,0,0,1-5.628,1.946A5.2,5.2,0,0,0,1737.746,3035.211Z" fill="#fff"></path></g></g></g></svg>