<svg xmlns="http://www.w3.org/2000/svg" width="82.694" height="108.001" viewBox="0 0 82.694 108.001"><g id="Group_1764" data-name="Group 1764" transform="translate(-1506.675 -2295.173)"><g id="Group_1761" data-name="Group 1761"><g id="Group_1759" data-name="Group 1759"><path id="Path_303" data-name="Path 303" d="M1547.94,2365.41a11.375,11.375,0,1,1,11.376-11.376A11.388,11.388,0,0,1,1547.94,2365.41Zm0-19.251a7.875,7.875,0,1,0,7.876,7.875A7.884,7.884,0,0,0,1547.94,2346.159Z" fill="#fff"></path></g><g id="Group_1760" data-name="Group 1760"><path id="Path_304" data-name="Path 304" d="M1540.307,2403.174a5.874,5.874,0,0,1-1.51-.2,4.564,4.564,0,0,1-3.491-5.177l1.232-6.636c.088-.475.179-.951.27-1.427.935-4.919,1.82-9.576.461-13.986l-12.136-9.266,2.124-2.782,12.568,9.595a1.761,1.761,0,0,1,.591.816c1.891,5.439.843,10.949-.17,16.277q-.135.708-.266,1.413l-1.233,6.635a1.105,1.105,0,0,0,.95,1.156,2.184,2.184,0,0,0,1.7-.218,1.015,1.015,0,0,0,.479-.6l2.249-11.8a3.726,3.726,0,0,1,3.817-2.9h0a3.726,3.726,0,0,1,3.817,2.9l2.247,11.79a1.019,1.019,0,0,0,.481.611,2.182,2.182,0,0,0,1.7.218,1.1,1.1,0,0,0,.949-1.156l-1.232-6.635q-.132-.7-.267-1.414c-1.013-5.328-2.061-10.837-.17-16.276a1.755,1.755,0,0,1,.591-.816l12.568-9.595a1.75,1.75,0,0,1,2.124,2.782l-12.136,9.266c-1.359,4.41-.474,9.067.461,13.986.091.476.182.953.27,1.428l1.232,6.634a4.565,4.565,0,0,1-3.49,5.178,5.655,5.655,0,0,1-4.468-.642,4.42,4.42,0,0,1-2.052-2.922l-2.239-11.75a.921.921,0,0,0-.771,0l-2.241,11.758a4.412,4.412,0,0,1-2.049,2.914A5.538,5.538,0,0,1,1540.307,2403.174Z" fill="#fff"></path></g></g><g id="Group_1762" data-name="Group 1762"><path id="Path_305" data-name="Path 305" d="M1580.01,2338.532H1580a1.751,1.751,0,0,1-1.737-1.764l.024-3.094a1.747,1.747,0,0,1,.524-1.236l6.749-6.622-3.106-7.664-9.455-.053a1.756,1.756,0,0,1-1.237-.522l-4.433-4.5a1.756,1.756,0,0,1-.5-1.245l.09-9.454-7.616-3.223-6.723,6.648a1.75,1.75,0,0,1-1.23.5h-.014l-6.317-.047a1.755,1.755,0,0,1-1.236-.525l-6.621-6.749-7.664,3.106-.053,9.455a1.75,1.75,0,0,1-.523,1.237l-4.5,4.433a1.8,1.8,0,0,1-1.245.5l-9.454-.09-3.223,7.616,6.648,6.723a1.749,1.749,0,0,1,.505,1.244l-.027,3.582a1.75,1.75,0,0,1-1.75,1.737h-.013a1.751,1.751,0,0,1-1.737-1.764l.022-2.855-6.961-7.039a1.752,1.752,0,0,1-.367-1.913l4.136-9.774a1.75,1.75,0,0,1,1.612-1.068h.016l9.9.094,3.464-3.413.056-9.9a1.75,1.75,0,0,1,1.093-1.612l9.836-3.987a1.749,1.749,0,0,1,1.907.4l6.933,7.067,4.863.037,7.039-6.961a1.749,1.749,0,0,1,1.913-.367l9.774,4.136a1.751,1.751,0,0,1,1.069,1.629l-.095,9.9,3.413,3.465,9.9.055a1.751,1.751,0,0,1,1.612,1.093l3.987,9.837a1.748,1.748,0,0,1-.4,1.906l-7.067,6.933-.018,2.368A1.75,1.75,0,0,1,1580.01,2338.532Z" fill="#fff"></path></g><g id="Group_1763" data-name="Group 1763"><path id="Path_306" data-name="Path 306" d="M1566.313,2338.532h-.017a1.752,1.752,0,0,1-1.734-1.767,16.622,16.622,0,1,0-33.243,0,1.751,1.751,0,0,1-1.732,1.769h-.018a1.75,1.75,0,0,1-1.75-1.732,20.123,20.123,0,1,1,40.244,0A1.75,1.75,0,0,1,1566.313,2338.532Z" fill="#ffc214"></path></g></g></svg>