<svg xmlns="http://www.w3.org/2000/svg" width="112.984" height="108" viewBox="0 0 112.984 108"><g id="Group_1737" data-name="Group 1737" transform="translate(-2797.847 -2708.426)"><g id="Group_1726" data-name="Group 1726"><path id="Path_277" data-name="Path 277" d="M2839.871,2746.007a1.712,1.712,0,0,1-1.14-2.991l31.761-28.278a1.712,1.712,0,0,1,2.277,2.557l-31.761,28.278A1.7,1.7,0,0,1,2839.871,2746.007Z" fill="#fff"></path></g><g id="Group_1727" data-name="Group 1727"><path id="Path_278" data-name="Path 278" d="M2844.846,2726.169c-.172,0-.344,0-.518-.015a8.871,8.871,0,1,1,9.369-8.343h0A8.884,8.884,0,0,1,2844.846,2726.169Zm-.008-14.318a5.447,5.447,0,1,0,5.441,5.762h0a5.453,5.453,0,0,0-5.123-5.753C2845.05,2711.854,2844.943,2711.851,2844.838,2711.851Zm7.15,5.861h0Z" fill="#fff"></path></g><g id="Group_1728" data-name="Group 1728"><path id="Path_279" data-name="Path 279" d="M2867.266,2751.349q-.258,0-.519-.015a8.866,8.866,0,1,1,.519.015Zm-.013-14.318a5.447,5.447,0,0,0-.308,10.885,5.447,5.447,0,1,0,.631-10.876C2867.468,2737.034,2867.36,2737.031,2867.253,2737.031Z" fill="#fff"></path></g><g id="Group_1729" data-name="Group 1729"><path id="Path_280" data-name="Path 280" d="M2863.1,2782.155l-35.851-25.089-26.536,24.121a1.712,1.712,0,0,1-2.3-2.534l28.561-25.961,35.714,24.994,45.213-46.192a1.712,1.712,0,0,1,2.447,2.4Z" fill="#ffc214"></path></g><g id="Group_1730" data-name="Group 1730"><path id="Path_281" data-name="Path 281" d="M2909.119,2747.694" fill="none" stroke="#fff" stroke-miterlimit="10" stroke-width="10"></path></g><g id="Group_1731" data-name="Group 1731"><path id="Path_282" data-name="Path 282" d="M2909.119,2753.564a1.711,1.711,0,0,1-1.712-1.712V2734.4h-17.449a1.712,1.712,0,1,1,0-3.423h20.873v20.872A1.712,1.712,0,0,1,2909.119,2753.564Z" fill="#ffc214"></path></g><g id="Group_1732" data-name="Group 1732"><path id="Path_283" data-name="Path 283" d="M2799.559,2816.426a1.712,1.712,0,0,1-1.712-1.712v-19.139a1.712,1.712,0,0,1,3.424,0v19.139A1.712,1.712,0,0,1,2799.559,2816.426Z" fill="#fff"></path></g><g id="Group_1733" data-name="Group 1733"><path id="Path_284" data-name="Path 284" d="M2826.949,2816.426a1.711,1.711,0,0,1-1.712-1.712v-44.028a1.712,1.712,0,0,1,3.424,0v44.028A1.712,1.712,0,0,1,2826.949,2816.426Z" fill="#fff"></path></g><g id="Group_1734" data-name="Group 1734"><path id="Path_285" data-name="Path 285" d="M2854.339,2816.426a1.712,1.712,0,0,1-1.712-1.712v-25.123a1.712,1.712,0,1,1,3.424,0v25.123A1.712,1.712,0,0,1,2854.339,2816.426Z" fill="#fff"></path></g><g id="Group_1735" data-name="Group 1735"><path id="Path_286" data-name="Path 286" d="M2881.729,2816.426a1.711,1.711,0,0,1-1.712-1.712v-37.358a1.712,1.712,0,0,1,3.424,0v37.358A1.712,1.712,0,0,1,2881.729,2816.426Z" fill="#fff"></path></g><g id="Group_1736" data-name="Group 1736"><path id="Path_287" data-name="Path 287" d="M2909.119,2816.426a1.711,1.711,0,0,1-1.712-1.712v-47.207a1.712,1.712,0,1,1,3.424,0v47.207A1.712,1.712,0,0,1,2909.119,2816.426Z" fill="#fff"></path></g></g></svg>