<svg xmlns="http://www.w3.org/2000/svg" width="120.989" height="108" viewBox="0 0 120.989 108"><g id="Group_1715" data-name="Group 1715" transform="translate(-379.506 -1586.01)"><g id="Group_1706" data-name="Group 1706"><path id="Path_265" data-name="Path 265" d="M425.072,1694.009a1.848,1.848,0,0,1-.415-.047l-21.924-5.08a1.835,1.835,0,0,1-1.372-2.2l2.657-11.466a38.217,38.217,0,0,1-11.7-14.931H381.339a1.833,1.833,0,0,1-1.833-1.833v-22.5a1.832,1.832,0,0,1,1.833-1.833h10.973a38.189,38.189,0,0,1,11.382-14.67c.031-4.454-1.453-10.375-8.14-14.839a1.833,1.833,0,0,1,.69-3.328,38.687,38.687,0,0,1,10.88-.131c7.393.973,13.024,4.154,16.376,9.227a87.572,87.572,0,0,1,18.8-1.064c11.754.81,22.674,4.918,30.748,11.569,8.489,6.992,13.164,16.34,13.164,26.321,0,10.68-5.243,20.828-14.429,28.016l2.657,11.466a1.835,1.835,0,0,1-1.372,2.2l-21.924,5.08a1.833,1.833,0,0,1-2.2-1.372l-1.8-7.773a46.935,46.935,0,0,1-4.97.277c-1.526,0-9.612-.121-13.5-.34l-1.816,7.836A1.833,1.833,0,0,1,425.072,1694.009Zm-19.725-8.285,18.351,4.252,1.758-7.586a1.832,1.832,0,0,1,2.022-1.4c1.91.248,12.409.441,14.7.441a46.9,46.9,0,0,0,6.148-.441,1.833,1.833,0,0,1,2.023,1.4l1.758,7.586,18.351-4.252-2.51-10.835a1.832,1.832,0,0,1,.7-1.889c8.836-6.524,13.9-15.928,13.9-25.8,0-8.866-4.2-17.208-11.828-23.491-7.489-6.169-17.671-9.984-28.669-10.741a82.279,82.279,0,0,0-19.1,1.238,1.835,1.835,0,0,1-1.953-.9c-4.463-7.9-14.123-8.934-19.766-8.8a20.7,20.7,0,0,1,6.1,15.934,1.831,1.831,0,0,1-.716,1.365,34.408,34.408,0,0,0-11.36,14.794,1.832,1.832,0,0,1-1.711,1.175H383.172v18.838h10.381a1.834,1.834,0,0,1,1.711,1.173A34.543,34.543,0,0,0,407.16,1673a1.834,1.834,0,0,1,.7,1.889Z" fill="#fff"></path></g><g id="Group_1707" data-name="Group 1707"><path id="Path_266" data-name="Path 266" d="M405.507,1634.545a4.721,4.721,0,0,1-2.722-.945,1.833,1.833,0,0,1,2.1-3.007c.537.374.694.292.832.22a1.833,1.833,0,0,1,1.7,3.25A4.112,4.112,0,0,1,405.507,1634.545Z" fill="#fff"></path></g><g id="Group_1708" data-name="Group 1708"><path id="Path_267" data-name="Path 267" d="M484.376,1649.253a1.833,1.833,0,0,1-.2-3.655,13.12,13.12,0,0,0,7.906-4.507c-.085-.052-.17-.1-.255-.158-2.739-1.718-4.4-4.14-4.561-6.644a5.9,5.9,0,0,1,5.419-6.552c2.629-.183,5.59,1.513,5.9,5.66a12.794,12.794,0,0,1-1.226,6.273,22.546,22.546,0,0,1,2.305,1.277,1.833,1.833,0,0,1-1.99,3.079,20.9,20.9,0,0,0-2.239-1.215q-.451.579-.963,1.132a16.391,16.391,0,0,1-9.88,5.3A1.83,1.83,0,0,1,484.376,1649.253Zm8.706-17.863c-.049,0-.1,0-.149.005a2.266,2.266,0,0,0-2.013,2.66c.12,1.866,2.034,3.26,2.851,3.773.1.064.206.127.311.189a8.948,8.948,0,0,0,.839-4.35C494.814,1632.211,494.146,1631.39,493.082,1631.39Z" fill="#fff"></path></g><g id="Group_1710" data-name="Group 1710"><g id="Group_1709" data-name="Group 1709"><path id="Path_268" data-name="Path 268" d="M458.561,1609.813a1.833,1.833,0,0,1-1.546-2.817,11.279,11.279,0,1,0-20.323-2.8,1.834,1.834,0,0,1-3.512,1.055,14.945,14.945,0,1,1,26.929,3.715A1.829,1.829,0,0,1,458.561,1609.813Z" fill="#ffc214"></path></g></g><g id="Group_1714" data-name="Group 1714"><g id="Group_1711" data-name="Group 1711"><path id="Path_269" data-name="Path 269" d="M425.428,1662.836a1.833,1.833,0,0,1-1.3-3.129l28.6-28.6a1.833,1.833,0,0,1,2.593,2.592l-28.6,28.6A1.827,1.827,0,0,1,425.428,1662.836Z" fill="#ffc214"></path></g><g id="Group_1712" data-name="Group 1712"><path id="Path_270" data-name="Path 270" d="M428.662,1643.734a8.643,8.643,0,1,1,8.642-8.643A8.652,8.652,0,0,1,428.662,1643.734Zm0-13.619a4.977,4.977,0,1,0,4.976,4.976A4.982,4.982,0,0,0,428.662,1630.115Z" fill="#ffc214"></path></g><g id="Group_1713" data-name="Group 1713"><path id="Path_271" data-name="Path 271" d="M451.339,1666.412a8.643,8.643,0,1,1,8.643-8.643A8.652,8.652,0,0,1,451.339,1666.412Zm0-13.62a4.977,4.977,0,1,0,4.976,4.977A4.983,4.983,0,0,0,451.339,1652.792Z" fill="#ffc214"></path></g></g></g></svg>