<svg xmlns="http://www.w3.org/2000/svg" width="121.078" height="108" viewBox="0 0 121.078 108"><g id="Group_1742" data-name="Group 1742" transform="translate(-2394.616 -2562.834)"><g id="Group_1738" data-name="Group 1738"><path id="Path_288" data-name="Path 288" d="M2440.358,2648.142a1.834,1.834,0,0,1-1.3-3.131l29.044-29.045a1.835,1.835,0,0,1,2.595,2.595l-29.045,29.044A1.827,1.827,0,0,1,2440.358,2648.142Z" fill="#fff"></path></g><g id="Group_1739" data-name="Group 1739"><path id="Path_289" data-name="Path 289" d="M2443.642,2628.746a8.749,8.749,0,1,1,8.749-8.749A8.759,8.759,0,0,1,2443.642,2628.746Zm0-13.829a5.08,5.08,0,1,0,5.08,5.08A5.086,5.086,0,0,0,2443.642,2614.917Z" fill="#ffc214"></path></g><g id="Group_1740" data-name="Group 1740"><path id="Path_290" data-name="Path 290" d="M2466.669,2651.773a8.749,8.749,0,1,1,8.749-8.749A8.759,8.759,0,0,1,2466.669,2651.773Zm0-13.829a5.08,5.08,0,1,0,5.08,5.08A5.085,5.085,0,0,0,2466.669,2637.944Z" fill="#ffc214"></path></g><g id="Group_1741" data-name="Group 1741"><path id="Path_291" data-name="Path 291" d="M2496.666,2670.834h-83.021a1.834,1.834,0,0,1-1.834-1.834v-43.792h-15.36a1.835,1.835,0,0,1-1.3-3.132l58.7-58.7a1.833,1.833,0,0,1,2.594,0l19.091,19.09v-8.9a1.834,1.834,0,0,1,1.835-1.834h19.288a1.834,1.834,0,0,1,1.834,1.834v31.856l16.657,16.656a1.835,1.835,0,0,1-1.3,3.132H2498.5V2669A1.834,1.834,0,0,1,2496.666,2670.834Zm-81.186-3.669h79.351v-43.792a1.834,1.834,0,0,1,1.835-1.834h12.765l-14.062-14.062a1.832,1.832,0,0,1-.538-1.3V2575.4h-15.619v11.492a1.834,1.834,0,0,1-3.131,1.3l-20.926-20.925-54.275,54.276h12.765a1.835,1.835,0,0,1,1.835,1.834Z" fill="#fff"></path></g></g></svg>