<svg xmlns="http://www.w3.org/2000/svg" width="181.037" height="54" viewBox="0 0 181.037 54"><g id="Group_2" data-name="Group 2" transform="translate(710.827 -2116.112)"><g id="Group_1346" data-name="Group 1346"><g id="Group_1329" data-name="Group 1329"><path id="Path_1" data-name="Path 1" d="M-651.014,2130.9v4.8a3.743,3.743,0,0,0,.586,2.317,3.117,3.117,0,0,1-2.154.8,2.025,2.025,0,0,1-1.662-.562,2.723,2.723,0,0,1-.445-1.709v-4.986a2.475,2.475,0,0,0-.211-1.171.857.857,0,0,0-.819-.374,2.08,2.08,0,0,0-.8.187,3.313,3.313,0,0,0-.913.609v7.819a10.012,10.012,0,0,1-1.78.14,10,10,0,0,1-1.779-.14V2121.56l.164-.164h1.4a2.01,2.01,0,0,1,1.557.492,2.609,2.609,0,0,1,.433,1.709v4.425a4.948,4.948,0,0,1,3.137-1.288,2.857,2.857,0,0,1,2.423,1.135A4.929,4.929,0,0,1-651.014,2130.9Z" fill="#eb9729"></path></g><g id="Group_1330" data-name="Group 1330"><path id="Path_2" data-name="Path 2" d="M-637.833,2127.319l-2.879,11a10.257,10.257,0,0,1-1.8,3.886,4.859,4.859,0,0,1-3.957,1.545,8.9,8.9,0,0,1-2.832-.468,3.857,3.857,0,0,1,.14-1.417,2.959,2.959,0,0,1,.585-1.2,6.639,6.639,0,0,0,2.107.351,2.279,2.279,0,0,0,2.295-1.9l.093-.328q-2.035,0-2.434-1.475l-2.716-10.09a4.867,4.867,0,0,1,2.013-.492,2.17,2.17,0,0,1,1.37.351,2.2,2.2,0,0,1,.644,1.217l1.077,4.5q.164.631.538,3.09a.17.17,0,0,0,.187.164l2.037-9.084a5.645,5.645,0,0,1,1.522-.164,6.09,6.09,0,0,1,1.873.258Z" fill="#eb9729"></path></g><g id="Group_1331" data-name="Group 1331"><path id="Path_3" data-name="Path 3" d="M-630,2138.861a5.113,5.113,0,0,1-2.147-.492v3.114a2.547,2.547,0,0,1-.445,1.709,2.048,2.048,0,0,1-1.568.492h-1.405l-.164-.164v-16.575l.164-.164h.96a2.145,2.145,0,0,1,1.99,1.147,4.406,4.406,0,0,1,3.244-1.334,3.372,3.372,0,0,1,1.726.433,3.813,3.813,0,0,1,1.272,1.229,5.988,5.988,0,0,1,.794,1.919,10.915,10.915,0,0,1,.268,2.529,8.47,8.47,0,0,1-.361,2.552,6.017,6.017,0,0,1-.992,1.943,4.459,4.459,0,0,1-1.481,1.229A4.032,4.032,0,0,1-630,2138.861Zm-.438-9.341a2.123,2.123,0,0,0-1.709.936v5.151a3.087,3.087,0,0,0,1.522.538q1.592,0,1.592-3.535Q-629.03,2129.52-630.435,2129.52Z" fill="#eb9729"></path></g><g id="Group_1332" data-name="Group 1332"><path id="Path_4" data-name="Path 4" d="M-614.117,2127.975a6.525,6.525,0,0,1,1.685,4.823,8.458,8.458,0,0,1-.362,2.551,5.553,5.553,0,0,1-1.054,1.955,4.57,4.57,0,0,1-1.7,1.241,5.818,5.818,0,0,1-2.318.433,5.592,5.592,0,0,1-2.306-.445,4.719,4.719,0,0,1-1.686-1.252,5.4,5.4,0,0,1-1.041-1.955,8.577,8.577,0,0,1-.352-2.528,8.557,8.557,0,0,1,.352-2.541,5.642,5.642,0,0,1,1.03-1.955,4.535,4.535,0,0,1,1.685-1.264,5.693,5.693,0,0,1,2.318-.444A5.16,5.16,0,0,1-614.117,2127.975Zm-3.734,1.358a1.337,1.337,0,0,0-.837.245,1.709,1.709,0,0,0-.507.668,3.473,3.473,0,0,0-.26.971,9.33,9.33,0,0,0-.07,1.183q0,.983.059,1.7a4.575,4.575,0,0,0,.235,1.194,1.492,1.492,0,0,0,.5.714,1.377,1.377,0,0,0,.837.234,1.316,1.316,0,0,0,1.367-.9,7.773,7.773,0,0,0,.33-2.564,7.643,7.643,0,0,0-.33-2.563A1.282,1.282,0,0,0-617.851,2129.333Z" fill="#eb9729"></path></g><g id="Group_1333" data-name="Group 1333"><path id="Path_5" data-name="Path 5" d="M-602.927,2126.921a6.112,6.112,0,0,1,.141,1.3,5.781,5.781,0,0,1-.141,1.275l-2.786-.046v5.384q0,1.1,1.03,1.1h1.312a4.676,4.676,0,0,1,.3,1.558,3.876,3.876,0,0,1-.094,1.015,23.779,23.779,0,0,1-3.184.236q-2.949,0-2.95-3.263v-6.008l-1.826.023a4.638,4.638,0,0,1-.163-1.264,5.176,5.176,0,0,1,.163-1.311l1.826.047v-1.358a2.512,2.512,0,0,1,.457-1.7,1.991,1.991,0,0,1,1.533-.5h1.429l.163.163v3.4Z" fill="#eb9729"></path></g><g id="Group_1334" data-name="Group 1334"><path id="Path_6" data-name="Path 6" d="M-591.454,2133.968h-6.088a2.632,2.632,0,0,0,.536,1.622,2,2,0,0,0,1.61.579,6.216,6.216,0,0,0,1.294-.159,12.01,12.01,0,0,0,1.691-.52,3.732,3.732,0,0,1,.956,2.154,7.707,7.707,0,0,1-4.588,1.334,5.787,5.787,0,0,1-2.47-.468,4.17,4.17,0,0,1-1.616-1.311,5.266,5.266,0,0,1-.878-1.99,11.421,11.421,0,0,1-.257-2.5,8.824,8.824,0,0,1,.316-2.423,5.54,5.54,0,0,1,.96-1.932,4.457,4.457,0,0,1,1.639-1.287,5.417,5.417,0,0,1,2.329-.468,5.245,5.245,0,0,1,2.025.374,4.508,4.508,0,0,1,1.534,1.03,4.474,4.474,0,0,1,.971,1.569,5.673,5.673,0,0,1,.34,1.99A8.275,8.275,0,0,1-591.454,2133.968Zm-6.111-2.528h3.067v-.258a2.478,2.478,0,0,0-.384-1.428,1.3,1.3,0,0,0-1.15-.562,1.245,1.245,0,0,0-1.1.527A3.508,3.508,0,0,0-597.565,2131.44Z" fill="#eb9729"></path></g><g id="Group_1335" data-name="Group 1335"><path id="Path_7" data-name="Path 7" d="M-579.375,2133.968l.586,1.709a3.667,3.667,0,0,0,1.123,1.99,3.2,3.2,0,0,1-2.458,1.147,1.679,1.679,0,0,1-1.17-.363,3.017,3.017,0,0,1-.7-1.276l-.7-2.013a2.07,2.07,0,0,0-.539-.971,1.267,1.267,0,0,0-.819-.246c-.344,0-.585.008-.726.023v4.659a10,10,0,0,1-1.779.14,10,10,0,0,1-1.779-.14V2121.56l.164-.164h1.4a2.012,2.012,0,0,1,1.545.492,2.551,2.551,0,0,1,.445,1.709v7.351h.375a.721.721,0,0,0,.655-.421l1.218-2.341a2.162,2.162,0,0,1,2.06-1.335q.678,0,2.037.047l.14.187-1.8,3.488a3.728,3.728,0,0,1-1.194,1.382A3.09,3.09,0,0,1-579.375,2133.968Z" fill="#eb9729"></path></g><g id="Group_1336" data-name="Group 1336"><path id="Path_8" data-name="Path 8" d="M-565.586,2136.941a3.94,3.94,0,0,1-.444,1.054,2.684,2.684,0,0,1-.679.819,3.084,3.084,0,0,1-2.529-1.241,4.782,4.782,0,0,1-3.3,1.405,3.985,3.985,0,0,1-1.592-.293,3.417,3.417,0,0,1-1.147-.784,3.228,3.228,0,0,1-.7-1.135,3.911,3.911,0,0,1-.234-1.346,4.048,4.048,0,0,1,.363-1.768,3.526,3.526,0,0,1,.995-1.264,4.405,4.405,0,0,1,1.475-.761,6.122,6.122,0,0,1,1.8-.258q.539,0,.948.012t.714.035v-.45a1.332,1.332,0,0,0-1.521-1.493,13.755,13.755,0,0,0-3.442.773,4.661,4.661,0,0,1-.889-2.552q.561-.212,1.252-.4t1.416-.328c.484-.094.96-.167,1.429-.222a10.88,10.88,0,0,1,1.264-.082,5.343,5.343,0,0,1,1.58.234,3.784,3.784,0,0,1,1.334.714,3.387,3.387,0,0,1,.914,1.241,4.433,4.433,0,0,1,.339,1.814v4.753A1.7,1.7,0,0,0-565.586,2136.941Zm-7.678-12.384,3.628-3.957a3.475,3.475,0,0,1,1.335.831,3.1,3.1,0,0,1,.866,1.276l-4.331,3.254a2.077,2.077,0,0,1-.9-.515A2.1,2.1,0,0,1-573.264,2124.557Zm.608,10.629q0,1.1,1.265,1.1a2.43,2.43,0,0,0,1.474-.679v-1.873q-.468-.022-.784-.035t-.48-.012A1.315,1.315,0,0,0-572.656,2135.186Z" fill="#eb9729"></path></g><g id="Group_1337" data-name="Group 1337"><path id="Path_9" data-name="Path 9" d="M-563.619,2128.63a4.176,4.176,0,0,1,.445-1.041,2.831,2.831,0,0,1,.655-.832,3.313,3.313,0,0,1,3,2.131,3.024,3.024,0,0,1,2.926-2.107,8.162,8.162,0,0,1,1.545.187,7.369,7.369,0,0,1-.245,1.721,6.162,6.162,0,0,1-.668,1.7,5.987,5.987,0,0,0-1.194-.234,2.214,2.214,0,0,0-1.919,1.194v7.281a10.245,10.245,0,0,1-1.815.14,10.643,10.643,0,0,1-1.838-.14v-7.562A2.894,2.894,0,0,0-563.619,2128.63Z" fill="#eb9729"></path></g><g id="Group_1338" data-name="Group 1338"><path id="Path_10" data-name="Path 10" d="M-542.971,2130.9v4.8a3.937,3.937,0,0,0,.562,2.317,3.083,3.083,0,0,1-2.13.8,2.024,2.024,0,0,1-1.662-.562,2.723,2.723,0,0,1-.445-1.709v-4.986a2.476,2.476,0,0,0-.211-1.171.857.857,0,0,0-.819-.374,2.08,2.08,0,0,0-.8.187,3.314,3.314,0,0,0-.913.609v7.819a8.6,8.6,0,0,1-.867.1c-.312.024-.632.035-.96.035s-.647-.011-.959-.035a8.572,8.572,0,0,1-.867-.1v-11.682l.164-.164h1.382a1.887,1.887,0,0,1,1.919,1.405,4.957,4.957,0,0,1,3.254-1.452,2.931,2.931,0,0,1,2.494,1.135A4.929,4.929,0,0,1-542.971,2130.9Z" fill="#eb9729"></path></g><g id="Group_1339" data-name="Group 1339"><path id="Path_11" data-name="Path 11" d="M-529.79,2127.319l-2.879,11a10.258,10.258,0,0,1-1.8,3.886,4.859,4.859,0,0,1-3.957,1.545,8.9,8.9,0,0,1-2.832-.468,3.857,3.857,0,0,1,.14-1.417,2.934,2.934,0,0,1,.585-1.2,6.639,6.639,0,0,0,2.107.351,2.279,2.279,0,0,0,2.3-1.9l.093-.328q-2.037,0-2.435-1.475l-2.715-10.09a4.863,4.863,0,0,1,2.013-.492,2.17,2.17,0,0,1,1.37.351,2.2,2.2,0,0,1,.644,1.217l1.076,4.5q.164.631.539,3.09a.17.17,0,0,0,.187.164l2.037-9.084a5.646,5.646,0,0,1,1.522-.164,6.1,6.1,0,0,1,1.873.258Z" fill="#eb9729"></path></g><g id="Group_1340" data-name="Group 1340"><path id="Path_12" data-name="Path 12" d="M-651.879,2160.4h-6.088a2.629,2.629,0,0,0,.536,1.622,2,2,0,0,0,1.61.579,6.208,6.208,0,0,0,1.294-.158,12.027,12.027,0,0,0,1.691-.521,3.733,3.733,0,0,1,.956,2.154,7.7,7.7,0,0,1-4.588,1.335,5.786,5.786,0,0,1-2.47-.469,4.17,4.17,0,0,1-1.616-1.311,5.25,5.25,0,0,1-.878-1.99,11.407,11.407,0,0,1-.257-2.5,8.829,8.829,0,0,1,.316-2.423,5.527,5.527,0,0,1,.96-1.931,4.46,4.46,0,0,1,1.639-1.288,5.417,5.417,0,0,1,2.329-.468,5.245,5.245,0,0,1,2.025.374,4.511,4.511,0,0,1,1.534,1.031,4.479,4.479,0,0,1,.971,1.568,5.676,5.676,0,0,1,.34,1.99A8.273,8.273,0,0,1-651.879,2160.4Zm-6.111-2.528h3.067v-.258a2.479,2.479,0,0,0-.384-1.428,1.3,1.3,0,0,0-1.15-.561,1.244,1.244,0,0,0-1.1.526A3.508,3.508,0,0,0-657.99,2157.868Z" fill="#fff"></path></g><g id="Group_1341" data-name="Group 1341"><path id="Path_13" data-name="Path 13" d="M-642.586,2153.373a6.769,6.769,0,0,1,1.5-.14,5.92,5.92,0,0,1,1.732.257l.094.234-3.3,5.1,3.7,5.619a4.31,4.31,0,0,1-2.412.819,2.231,2.231,0,0,1-1.99-1.1l-1.521-2.318-1.873,3.207a5.732,5.732,0,0,1-1.534.141,5.071,5.071,0,0,1-1.814-.281l-.117-.211,3.582-5.6-3.325-5.174a4.206,4.206,0,0,1,2.482-.8,1.857,1.857,0,0,1,1.054.269,3.092,3.092,0,0,1,.8.878l1.24,1.92Z" fill="#fff"></path></g><g id="Group_1342" data-name="Group 1342"><path id="Path_14" data-name="Path 14" d="M-631.192,2165.289a5.111,5.111,0,0,1-2.146-.491v3.113a2.559,2.559,0,0,1-.445,1.71,2.057,2.057,0,0,1-1.569.491h-1.4l-.164-.164v-16.575l.164-.164h.959a2.147,2.147,0,0,1,1.99,1.147,4.409,4.409,0,0,1,3.244-1.334,3.375,3.375,0,0,1,1.727.433,3.823,3.823,0,0,1,1.272,1.229,5.992,5.992,0,0,1,.793,1.92,10.9,10.9,0,0,1,.269,2.528,8.459,8.459,0,0,1-.362,2.552,6.015,6.015,0,0,1-.991,1.943,4.439,4.439,0,0,1-1.482,1.229A4.03,4.03,0,0,1-631.192,2165.289Zm-.437-9.341a2.121,2.121,0,0,0-1.709.937v5.15a3.09,3.09,0,0,0,1.521.539q1.593,0,1.592-3.535Q-630.225,2155.948-631.629,2155.948Z" fill="#fff"></path></g><g id="Group_1343" data-name="Group 1343"><path id="Path_15" data-name="Path 15" d="M-614.632,2160.4h-6.088a2.629,2.629,0,0,0,.536,1.622,2,2,0,0,0,1.61.579,6.207,6.207,0,0,0,1.294-.158,12.025,12.025,0,0,0,1.691-.521,3.733,3.733,0,0,1,.956,2.154,7.7,7.7,0,0,1-4.589,1.335,5.784,5.784,0,0,1-2.469-.469,4.17,4.17,0,0,1-1.616-1.311,5.25,5.25,0,0,1-.878-1.99,11.407,11.407,0,0,1-.257-2.5,8.829,8.829,0,0,1,.316-2.423,5.527,5.527,0,0,1,.96-1.931,4.465,4.465,0,0,1,1.638-1.288,5.425,5.425,0,0,1,2.33-.468,5.245,5.245,0,0,1,2.025.374,4.5,4.5,0,0,1,1.533,1.031,4.465,4.465,0,0,1,.972,1.568,5.675,5.675,0,0,1,.339,1.99A8.275,8.275,0,0,1-614.632,2160.4Zm-6.111-2.528h3.067v-.258a2.479,2.479,0,0,0-.384-1.428,1.3,1.3,0,0,0-1.15-.561,1.243,1.243,0,0,0-1.1.526A3.507,3.507,0,0,0-620.743,2157.868Z" fill="#fff"></path></g><g id="Group_1344" data-name="Group 1344"><path id="Path_16" data-name="Path 16" d="M-612.222,2155.059a4.179,4.179,0,0,1,.445-1.042,2.854,2.854,0,0,1,.656-.831,3.31,3.31,0,0,1,3,2.13,3.025,3.025,0,0,1,2.927-2.107,8.253,8.253,0,0,1,1.545.187,7.323,7.323,0,0,1-.246,1.721,6.169,6.169,0,0,1-.667,1.7,5.934,5.934,0,0,0-1.194-.235,2.215,2.215,0,0,0-1.92,1.194v7.281a10.226,10.226,0,0,1-1.814.141,10.627,10.627,0,0,1-1.838-.141v-7.561A2.893,2.893,0,0,0-612.222,2155.059Z" fill="#fff"></path></g><g id="Group_1345" data-name="Group 1345"><path id="Path_17" data-name="Path 17" d="M-593.914,2153.35a6.168,6.168,0,0,1,.14,1.3,5.848,5.848,0,0,1-.14,1.276l-2.786-.047v5.385q0,1.1,1.03,1.1h1.311a4.679,4.679,0,0,1,.3,1.558,3.9,3.9,0,0,1-.093,1.016,23.794,23.794,0,0,1-3.184.235q-2.951,0-2.95-3.262V2155.9l-1.826.023a4.649,4.649,0,0,1-.164-1.265,5.161,5.161,0,0,1,.164-1.31l1.826.046v-1.357a2.516,2.516,0,0,1,.456-1.7,2,2,0,0,1,1.534-.5h1.428l.164.164v3.394Z" fill="#fff"></path></g></g><g id="Group_1347" data-name="Group 1347"><path id="Path_18" data-name="Path 18" d="M-678.078,2143.2c-1.705-20.179-6.934-22.26-14.747-22.26s-13.042,2.081-14.747,22.26,14.747,21.4,14.747,21.4S-676.372,2163.379-678.078,2143.2Z" fill="#f9cea0"></path></g><g id="Group_1354" data-name="Group 1354"><g id="Group_1350" data-name="Group 1350"><g id="Group_1349" data-name="Group 1349"><g id="Group_1348" data-name="Group 1348"><path id="Path_19" data-name="Path 19" d="M-707.688,2143.036s-2.361-2.645-2.951,0,.162,7.489,2.951,9.382C-707.688,2152.418-707.078,2146.374-707.688,2143.036Z" fill="#f9be85"></path></g></g></g><g id="Group_1353" data-name="Group 1353"><g id="Group_1352" data-name="Group 1352"><g id="Group_1351" data-name="Group 1351"><path id="Path_20" data-name="Path 20" d="M-677.962,2143.036s2.361-2.645,2.951,0-.163,7.489-2.951,9.382C-677.962,2152.418-678.572,2146.374-677.962,2143.036Z" fill="#f9be85"></path></g></g></g></g><g id="Group_1357" data-name="Group 1357"><g id="Group_1355" data-name="Group 1355"><path id="Path_21" data-name="Path 21" d="M-680.445,2119.919l.017.011Z" fill="#5eadcc"></path></g><g id="Group_1356" data-name="Group 1356"><path id="Path_22" data-name="Path 22" d="M-677.523,2126.173a15.167,15.167,0,0,0-5.577-6.016c1.759-.661,2.533-.3,2.655-.238a13.853,13.853,0,0,0-8.213-1.849c-.479-.088-.943-.159-1.376-.217l-.935-1.6a2.38,2.38,0,0,0-.749,1.224c-6.392-4.284-13.6,2.857-13.6,2.857a13.28,13.28,0,0,1,5.457-1.523,15.611,15.611,0,0,0-8.266,7.358c-2.075,4.226-1.334,15.822-1.334,15.822,2.483.963,1.594,8.562,1.594,8.562l.864.7,0-5.658c-.118-8.079,3.663-6.068,1.829-11.736-1.906-5.888,12.347-6.852,12.347-6.852s14.252.964,12.347,6.852c-1.834,5.668,1.946,3.657,1.828,11.736l0,5.658.864-.7s-.89-7.6,1.594-8.562C-676.188,2142-675.447,2130.4-677.523,2126.173Z" fill="#5eadcc"></path></g></g><g id="Group_1358" data-name="Group 1358"><path id="Path_23" data-name="Path 23" d="M-677.782,2150.557l-.864.7-1,2.6c-2.88,6.762-5.5,1.789-7.591-.3s-5.592-.786-5.592-.786-3.5-1.308-5.592.786-4.712,7.067-7.591.3l-1-2.6-.864-.7a17.255,17.255,0,0,0-.146,4.17c.953,3.27,6.063,8.822,8.55,10.61s6.639,1.789,6.639,1.789,4.152,0,6.639-1.789,7.6-7.34,8.55-10.61A17.258,17.258,0,0,0-677.782,2150.557Z" fill="#eb9729"></path></g><g id="Group_1363" data-name="Group 1363"><g id="Group_1360" data-name="Group 1360"><g id="Group_1359" data-name="Group 1359"><ellipse id="Ellipse_1" data-name="Ellipse 1" cx="1.684" cy="1.598" rx="1.684" ry="1.598" transform="translate(-702.13 2140.625)" fill="#1d1d1b"></ellipse></g></g><g id="Group_1362" data-name="Group 1362"><g id="Group_1361" data-name="Group 1361"><ellipse id="Ellipse_2" data-name="Ellipse 2" cx="1.684" cy="1.598" rx="1.684" ry="1.598" transform="translate(-686.888 2140.625)" fill="#1d1d1b"></ellipse></g></g></g><g id="Group_1365" data-name="Group 1365"><g id="Group_1364" data-name="Group 1364"><path id="Path_24" data-name="Path 24" d="M-695.41,2149.3a4.413,4.413,0,0,0,1.324.755,3.724,3.724,0,0,0,1.261.217,3.74,3.74,0,0,0,1.26-.218,4.445,4.445,0,0,0,1.325-.754,2.6,2.6,0,0,1-.989,1.46,2.712,2.712,0,0,1-1.6.519,2.719,2.719,0,0,1-1.6-.52A2.6,2.6,0,0,1-695.41,2149.3Z" fill="#432918"></path></g></g><g id="Group_1368" data-name="Group 1368"><g id="Group_1366" data-name="Group 1366"><path id="Path_25" data-name="Path 25" d="M-687.532,2135.447l-.341-1.336a.35.35,0,0,1,.414-.407l4.265.581a.331.331,0,0,1,.021.659l-3.923.755A.371.371,0,0,1-687.532,2135.447Z" fill="#1d1d1b"></path></g><g id="Group_1367" data-name="Group 1367"><path id="Path_26" data-name="Path 26" d="M-698.119,2135.447l.342-1.336a.351.351,0,0,0-.414-.407l-4.265.581a.331.331,0,0,0-.022.659l3.924.755A.37.37,0,0,0-698.119,2135.447Z" fill="#1d1d1b"></path></g></g><g id="Group_1370" data-name="Group 1370"><g id="Group_1369" data-name="Group 1369"><path id="Path_27" data-name="Path 27" d="M-696.584,2159.258a26.89,26.89,0,0,0,7.518,0c.367-.594.538-.9.854-1.5a24.633,24.633,0,0,1-9.226,0C-697.122,2158.363-696.951,2158.664-696.584,2159.258Z" fill="#1d1d1b"></path></g></g><path id="Path_28" data-name="Path 28" d="M-680.428,2119.93l-.017-.011Zm2.9,6.243a15.167,15.167,0,0,0-5.577-6.016c1.759-.661,2.533-.3,2.655-.238a13.853,13.853,0,0,0-8.213-1.849c-.479-.088-.943-.159-1.376-.217l-.935-1.6a2.38,2.38,0,0,0-.749,1.224c-6.392-4.284-13.6,2.857-13.6,2.857a13.28,13.28,0,0,1,5.457-1.523,15.611,15.611,0,0,0-8.266,7.358c-2.075,4.226-1.334,15.822-1.334,15.822,2.483.963,1.594,8.562,1.594,8.562l.864.7,0-5.658c-.118-8.079,3.663-6.068,1.829-11.736-1.906-5.888,12.347-6.852,12.347-6.852s14.252.964,12.347,6.852c-1.834,5.668,1.946,3.657,1.828,11.736l0,5.658.864-.7s-.89-7.6,1.594-8.562C-676.188,2142-675.447,2130.4-677.523,2126.173Z" fill="#e94e1b"></path><g id="Group_1373" data-name="Group 1373"><g id="Group_1371" data-name="Group 1371"><path id="Path_29" data-name="Path 29" d="M-697.637,2146.29h-5.614a2.85,2.85,0,0,1-2.73-2.289l-1.074-4.661a1.165,1.165,0,0,1,.226-1,1.167,1.167,0,0,1,.919-.443h10.931a1.169,1.169,0,0,1,.92.443,1.167,1.167,0,0,1,.225,1l-1.073,4.661A2.851,2.851,0,0,1-697.637,2146.29Zm-8.083-7.062,1.031,4.475a1.533,1.533,0,0,0,1.438,1.26h5.614a1.532,1.532,0,0,0,1.437-1.26l1.031-4.475Z" fill="#1d1d1b"></path></g><g id="Group_1372" data-name="Group 1372"><path id="Path_30" data-name="Path 30" d="M-682.4,2146.29h-5.614a2.85,2.85,0,0,1-2.73-2.289l-1.074-4.661a1.171,1.171,0,0,1,.226-1,1.167,1.167,0,0,1,.919-.443h10.932a1.167,1.167,0,0,1,.919.443,1.172,1.172,0,0,1,.226,1l-1.074,4.661A2.85,2.85,0,0,1-682.4,2146.29Zm-8.082-7.062,1.031,4.475a1.531,1.531,0,0,0,1.437,1.26h5.614a1.533,1.533,0,0,0,1.438-1.26l1.03-4.475Z" fill="#1d1d1b"></path></g></g><g id="Group_1374" data-name="Group 1374"><rect id="Rectangle_3" data-name="Rectangle 3" width="3.671" height="1.137" transform="translate(-694.661 2139.779)" fill="#1d1d1b"></rect></g><g id="Group_1375" data-name="Group 1375"><path id="Path_31" data-name="Path 31" d="M-706.54,2139.371l-3,.778c.022.7.048,1.239.065,1.549l3.051-.79c.054-.162.109-.315.167-.46Z" fill="#1d1d1b"></path><path id="Path_32" data-name="Path 32" d="M-676.106,2140.149l-3-.778-.279,1.077c.057.145.113.3.166.46l3.052.79C-676.155,2141.388-676.129,2140.849-676.106,2140.149Z" fill="#1d1d1b"></path></g></g></svg>